<svg width="58" height="512" viewBox="0 0 58 512" fill="none" xmlns="http://www.w3.org/2000/svg">
<path d="M39.5735 463.327L55.9473 468.414L55.9473 512.002L53.8504 512.002C53.8504 509.177 53.4042 507.154 52.5119 505.935C51.5899 504.715 49.6863 504.106 46.8012 504.106L10.3953 504.106C7.5399 504.106 5.6512 504.715 4.72915 505.935C3.80711 507.154 3.34609 509.177 3.34609 512.002L1.24918 512.002L1.24918 486.572L3.34609 486.572C3.34609 489.397 3.80711 491.465 4.72915 492.773C5.6512 494.082 7.5399 494.736 10.3953 494.736L45.4627 494.736C48.0801 494.736 49.835 494.261 50.7273 493.309C51.5899 492.357 52.0211 490.305 52.0211 487.152L52.0211 482.11C52.0211 479.136 51.694 476.667 51.0396 474.704C50.3555 472.741 49.1063 471.046 47.2919 469.618C45.4776 468.19 42.8602 466.763 39.4397 465.335L39.5735 463.327ZM55.9473 402.874L55.9473 426.431L53.8504 426.431C53.8504 424.825 53.6421 423.456 53.2257 422.326C52.8093 421.196 51.9468 420.631 50.6381 420.631C49.9242 420.631 48.8386 420.884 47.3812 421.389C45.9237 421.865 44.3622 422.46 42.6966 423.174C41.031 423.888 39.5289 424.527 38.1905 425.092L38.1905 445.08C38.6069 445.258 39.3505 445.585 40.4212 446.061C41.4622 446.537 42.6371 447.058 43.9458 447.623C45.2248 448.158 46.4294 448.619 47.5596 449.006C48.6899 449.393 49.5227 449.586 50.0581 449.586C51.4858 449.586 52.4524 448.857 52.9581 447.4C53.4637 445.942 53.7611 444.44 53.8504 442.894L55.9473 442.894L55.9473 461.186L53.8504 461.186C53.6422 458.836 52.7796 457.066 51.2627 455.877C49.716 454.687 47.5745 453.512 44.8381 452.352L0.0445685 433.391L0.0445684 431.428L45.6858 411.975C48.1545 410.934 50.1027 409.774 51.5304 408.495C52.9581 407.187 53.7314 405.313 53.8504 402.874L55.9473 402.874ZM34.6659 426.565L14.4106 435.175L34.6659 443.652L34.6659 426.565ZM55.9473 340.279L55.9473 367.717L53.8504 367.717C53.8504 366.617 53.6719 365.605 53.315 364.683C52.9283 363.761 52.2293 363.3 51.2181 363.3C50.6827 363.3 50.0135 363.598 49.2104 364.193C48.3776 364.758 47.7381 365.278 47.2919 365.754L31.1859 381.593L33.1936 383.689L45.9089 383.689C48.0206 383.689 49.6565 383.526 50.8165 383.199C51.9468 382.842 52.735 382.143 53.1811 381.102C53.6273 380.031 53.8504 378.425 53.8504 376.283L55.9473 376.283L55.9473 400.777L53.8504 400.777C53.8504 398.487 53.6273 396.806 53.1811 395.736C52.735 394.635 51.9468 393.921 50.8165 393.594C49.6565 393.267 48.0206 393.103 45.9089 393.103L11.2876 393.103C9.17579 393.103 7.5399 393.267 6.37991 393.594C5.21992 393.921 4.41684 394.635 3.97069 395.736C3.4948 396.806 3.25685 398.487 3.25685 400.777L1.24917 400.777L1.24917 376.373L3.25685 376.373C3.25685 378.455 3.4948 380.016 3.97069 381.057C4.41684 382.098 5.21992 382.797 6.37991 383.154C7.5399 383.511 9.17579 383.689 11.2876 383.689L27.0367 383.689C24.7167 381.221 22.4413 378.812 20.2106 376.462C17.9798 374.082 15.8978 371.926 13.9645 369.993C12.0312 368.059 10.3358 366.513 8.87835 365.353C7.42093 364.193 6.32042 363.613 5.57684 363.613C4.50607 363.613 3.85172 364.089 3.61377 365.04C3.37582 365.962 3.25685 367.182 3.25685 368.699L1.24917 368.699L1.24917 347.596L3.25685 347.596C3.25685 349.41 3.61377 351.091 4.32761 352.637C5.01171 354.154 6.15683 355.805 7.76297 357.59C9.33937 359.374 11.4363 361.59 14.0537 364.237L25.1182 375.123L45.775 354.556C48.1842 352.176 50.0878 349.886 51.4858 347.685C52.8539 345.484 53.6421 343.015 53.8503 340.279L55.9473 340.279ZM55.9473 282.146L55.9473 305.702L53.8503 305.702C53.8503 304.096 53.6421 302.728 53.2257 301.598C52.8093 300.467 51.9468 299.902 50.6381 299.902C49.9242 299.902 48.8386 300.155 47.3812 300.661C45.9237 301.137 44.3622 301.732 42.6966 302.445C41.0309 303.159 39.5289 303.799 38.1905 304.364L38.1905 324.351C38.6069 324.53 39.3504 324.857 40.4212 325.333C41.4622 325.809 42.6371 326.329 43.9458 326.894C45.2248 327.43 46.4294 327.891 47.5596 328.278C48.6899 328.664 49.5227 328.858 50.0581 328.858C51.4857 328.858 52.4524 328.129 52.958 326.671C53.4637 325.214 53.7611 323.712 53.8503 322.165L55.9473 322.165L55.9473 340.457L53.8503 340.457C53.6421 338.108 52.7796 336.338 51.2627 335.148C49.716 333.959 47.5745 332.784 44.8381 331.624L0.0445632 312.662L0.0445631 310.699L45.6858 291.247C48.1545 290.206 50.1027 289.046 51.5304 287.767C52.958 286.458 53.7314 284.585 53.8503 282.146L55.9473 282.146ZM34.6659 305.836L14.4106 314.447L34.6659 322.924L34.6659 305.836ZM55.9473 223.164L55.9473 240.118L30.6951 258.41C30.7844 259.184 30.829 260.016 30.829 260.909C30.829 261.295 30.8141 261.682 30.7844 262.069C30.7546 262.426 30.7397 262.768 30.7397 263.095L46.0873 263.095C48.1396 263.095 49.7309 262.902 50.8611 262.515C51.9914 262.128 52.7796 261.385 53.2257 260.284C53.6421 259.154 53.8503 257.459 53.8503 255.198L55.9473 255.198L55.9473 280.093L53.8503 280.093C53.8503 277.803 53.6421 276.123 53.2257 275.052C52.7796 273.951 51.9914 273.237 50.8611 272.91C49.7011 272.583 48.0653 272.419 45.9535 272.419L10.886 272.419C8.80399 272.419 7.21272 272.583 6.11221 272.91C5.01171 273.237 4.26812 273.951 3.88146 275.052C3.46505 276.123 3.25685 277.803 3.25685 280.093L1.24917 280.093L1.24917 258.812C1.24917 256.165 1.39788 253.503 1.69532 250.826C1.99275 248.119 2.61736 245.636 3.56915 243.375C4.4912 241.115 5.88914 239.3 7.76297 237.932C9.6368 236.534 12.1352 235.835 15.2583 235.835C19.5116 235.835 22.7685 237.04 25.029 239.449C27.2598 241.858 28.7469 244.832 29.4905 248.372L44.7043 236.995C47.5596 234.794 49.7458 232.727 51.2627 230.794C52.7498 228.86 53.6124 226.317 53.8503 223.164L55.9473 223.164ZM15.9721 246.275C12.7896 246.275 10.1424 247.182 8.03066 248.997C5.91888 250.781 4.86299 253.607 4.86299 257.473C4.86299 258.485 4.92248 259.466 5.04145 260.418C5.16042 261.34 5.2794 262.232 5.39837 263.095L27.2598 263.095C27.3787 262.351 27.4382 261.34 27.4382 260.061C27.4382 257.771 27.0516 255.585 26.2782 253.503C25.5049 251.391 24.2854 249.666 22.6198 248.327C20.9244 246.959 18.7085 246.275 15.9721 246.275ZM41.6258 173.151L42.9643 171.366C45.5817 172.824 47.976 174.623 50.1473 176.765C52.2888 178.877 54.0139 181.39 55.3226 184.305C56.6016 187.19 57.2411 190.536 57.2411 194.343C57.2411 200.113 55.9919 205.051 53.4934 209.155C50.995 213.23 47.6488 216.353 43.455 218.524C39.2315 220.696 34.5766 221.781 29.4905 221.781C25.5941 221.781 21.8762 221.142 18.3367 219.863C14.7973 218.554 11.6594 216.695 8.92296 214.286C6.15682 211.847 3.98556 208.917 2.40916 205.497C0.832758 202.047 0.0445582 198.15 0.044558 193.808C0.0445579 190.536 0.50558 187.77 1.42763 185.509C2.34967 183.219 3.15274 181.122 3.83684 179.219C3.83684 178.118 3.42043 177.374 2.58762 176.988C1.7548 176.571 0.892244 176.229 -5.78438e-05 175.962L-5.79315e-05 173.954L19.4075 172.794L19.4075 174.623C14.6486 175.932 10.8117 178.133 7.89681 181.226C4.95222 184.32 3.47992 188.142 3.47992 192.692C3.47992 196.113 4.2235 198.998 5.71067 201.348C7.19784 203.697 9.19065 205.586 11.6891 207.014C14.1875 208.412 16.9834 209.423 20.0767 210.048C23.17 210.672 26.3228 210.985 29.5351 210.985C33.9966 210.985 38.012 210.271 41.5812 208.843C45.1504 207.415 47.976 205.259 50.0581 202.374C52.1401 199.459 53.1811 195.815 53.1811 191.443C53.1811 188.439 52.6755 185.866 51.6642 183.725C50.6529 181.553 49.2847 179.635 47.5596 177.969C45.8048 176.274 43.8268 174.668 41.6258 173.151ZM55.9472 109.396L55.9472 132.953L53.8503 132.953C53.8503 131.347 53.6421 129.978 53.2257 128.848C52.8093 127.718 51.9468 127.153 50.6381 127.153C49.9242 127.153 48.8386 127.406 47.3812 127.911C45.9237 128.387 44.3622 128.982 42.6966 129.696C41.0309 130.41 39.5289 131.049 38.1904 131.614L38.1904 151.602C38.6069 151.78 39.3504 152.107 40.4212 152.583C41.4622 153.059 42.6371 153.58 43.9458 154.145C45.2248 154.68 46.4294 155.141 47.5596 155.528C48.6899 155.915 49.5227 156.108 50.0581 156.108C51.4857 156.108 52.4524 155.379 52.958 153.922C53.4637 152.464 53.7611 150.962 53.8503 149.416L55.9472 149.416L55.9473 167.708L53.8503 167.708C53.6421 165.358 52.7796 163.588 51.2627 162.399C49.716 161.209 47.5745 160.034 44.8381 158.874L0.0445557 139.913L0.0445556 137.95L45.6858 118.497C48.1545 117.456 50.1027 116.296 51.5304 115.017C52.958 113.709 53.7314 111.835 53.8503 109.396L55.9472 109.396ZM34.6659 133.087L14.4106 141.697L34.6659 150.174L34.6659 133.087ZM28.4197 52.5564C34.2494 52.5564 39.2166 53.8056 43.3212 56.304C47.4258 58.8025 50.5637 62.2676 52.735 66.6993C54.8765 71.1311 55.9472 76.2618 55.9472 82.0915L55.9472 107.478L53.8503 107.478C53.8503 105.247 53.6273 103.581 53.1811 102.481C52.735 101.35 51.9468 100.622 50.8165 100.294C49.6565 99.9376 48.0206 99.7591 45.9089 99.7591L11.2876 99.7591C9.11629 99.7591 7.45066 99.9227 6.29066 100.25C5.13067 100.577 4.34247 101.291 3.92607 102.391C3.47992 103.492 3.25684 105.187 3.25684 107.478L1.24916 107.478L1.24916 83.5638C1.24916 77.5557 2.20095 72.2167 4.10452 67.547C5.97836 62.8773 8.92295 59.2189 12.9383 56.5717C16.9239 53.8948 22.0844 52.5564 28.4197 52.5564ZM28.6428 63.4871C24.4787 63.4871 20.5972 64.2158 16.9983 65.6732C13.3696 67.1009 10.4399 69.3019 8.20911 72.2762C5.97836 75.2506 4.86298 79.0577 4.86298 83.6977C4.86298 84.9469 4.95221 86.1218 5.13067 87.2223C5.27939 88.293 5.48759 89.3192 5.75528 90.3007L51.4857 90.3007C51.8129 89.23 52.0806 88.07 52.2888 86.8207C52.497 85.5418 52.6011 84.2331 52.6011 82.8946C52.6011 78.4629 51.4709 74.8193 49.2104 71.9639C46.9499 69.1086 44.0053 66.9819 40.3766 65.584C36.7181 64.186 32.8069 63.4871 28.6428 63.4871ZM41.5366 -0.000195419L55.9472 5.08592L55.9472 47.5149L53.8503 47.5149C53.8503 45.2544 53.6273 43.5739 53.1811 42.4734C52.735 41.3729 51.917 40.6441 50.7273 40.2872C49.5375 39.9303 47.8273 39.7518 45.5965 39.7518L11.4214 39.7518C9.13116 39.7518 7.40604 39.9154 6.24605 40.2426C5.08606 40.5698 4.29786 41.2836 3.88145 42.3841C3.46504 43.4549 3.25684 45.1651 3.25684 47.5149L1.24916 47.5149L1.24916 4.90747L14.0983 4.28285L14.0983 6.29053C11.7486 6.91514 9.90448 7.52488 8.56603 8.11975C7.19783 8.71462 6.23117 9.66641 5.66605 10.9751C5.07118 12.2541 4.77375 14.2469 4.77375 16.9535L4.77375 30.4273L25.7875 30.4273L25.7875 20.7904C25.7875 18.5597 25.5346 16.8792 25.029 15.7489C24.4936 14.5889 23.6162 13.771 22.3967 13.2951C21.1475 12.7895 19.467 12.3879 17.3552 12.0905L17.3552 10.0382L37.6997 10.0382L37.6997 12.0905C35.5582 12.3879 33.8925 12.7746 32.7028 13.2505C31.4833 13.7264 30.6356 14.5294 30.1597 15.6597C29.6541 16.7899 29.4013 18.5002 29.4013 20.7904L29.4013 30.4273L46.1319 30.4273C48.2437 30.4273 49.835 30.2191 50.9057 29.8027C51.9468 29.3863 52.4673 28.0627 52.4673 25.8319L52.4673 18.2474C52.4673 15.0648 52.0955 12.5813 51.3519 10.7967C50.6083 9.01205 49.4334 7.51001 47.8273 6.29053C46.2212 5.07105 44.1242 3.7326 41.5366 2.27517L41.5366 -0.000195419Z" fill="#A28769"/>
</svg>
